<?xml version="1.0" encoding="UTF-8"?>
<!DOCTYPE svg PUBLIC "-//W3C//DTD SVG 1.1//EN" "http://www.w3.org/Graphics/SVG/1.1/DTD/svg11.dtd">
<svg version="1.1" xmlns="http://www.w3.org/2000/svg" xmlns:xlink="http://www.w3.org/1999/xlink" x="0" y="0" width="83" height="82" viewBox="0, 0, 83, 82">
  <g id="Page-1">
    <path d="M0.912,41 C0.912,63.644 19.268,82 41.912,82 C64.556,82 82.912,63.644 82.912,41 C82.912,18.356 64.556,0 41.912,0 C19.268,0 0.912,18.356 0.912,41 z" fill="#0DB1F4" id="Oval-1"/>
    <g>
      <path d="M59,25.25 L54.625,25.25 L54.625,22.625 C54.625,21.177 53.448,20 52,20 C50.552,20 49.375,21.177 49.375,22.625 L49.375,25.25 L33.625,25.25 L33.625,22.625 C33.625,21.177 32.448,20 31,20 C29.552,20 28.375,21.177 28.375,22.625 L28.375,25.25 L24,25.25 C22.067,25.25 20.5,26.817 20.5,28.75 L20.5,58.5 C20.5,60.433 22.067,62 24,62 L59,62 C60.933,62 62.5,60.433 62.5,58.5 L62.5,28.75 C62.5,26.817 60.933,25.25 59,25.25 z M51.125,22.625 C51.125,22.142 51.518,21.75 52,21.75 C52.482,21.75 52.875,22.142 52.875,22.625 L52.875,29.625 C52.875,30.108 52.482,30.5 52,30.5 C51.518,30.5 51.125,30.108 51.125,29.625 L51.125,22.625 z M30.125,22.625 C30.125,22.142 30.518,21.75 31,21.75 C31.482,21.75 31.875,22.142 31.875,22.625 L31.875,29.625 C31.875,30.108 31.482,30.5 31,30.5 C30.518,30.5 30.125,30.108 30.125,29.625 L30.125,22.625 z M60.148,57.57 C60.148,58.535 59.09,59.484 58.125,59.484 L25.039,59.648 C24.074,59.648 22.852,58.426 22.852,57.461 L23.016,37.5 L60.148,37.5 L60.148,57.57 z M60.148,35.094 L23.07,34.984 L23.125,29.734 C23.125,28.769 24.183,27.656 25.148,27.656 L28.32,27.602 L28.375,29.625 C28.375,31.073 29.552,32.25 31,32.25 C32.448,32.25 33.625,31.073 33.625,29.625 L33.625,27.656 L49.375,27.602 L49.375,29.625 C49.375,31.073 50.552,32.25 52,32.25 C53.448,32.25 54.625,31.073 54.625,29.625 L54.68,27.547 L58.289,27.547 C59.254,27.547 60.203,28.332 60.203,29.297 L60.148,35.094 z" fill="#FFFFFF"/>
      <path d="M39.094,42.094 L43.906,42.094 L43.906,46.906 L39.094,46.906 z" fill="#FFFFFF"/>
      <path d="M39.094,49.094 L43.906,49.094 L43.906,53.906 L39.094,53.906 z" fill="#FFFFFF"/>
      <path d="M46.094,49.094 L50.906,49.094 L50.906,53.906 L46.094,53.906 z" fill="#FFFFFF"/>
      <path d="M32.094,42.094 L36.906,42.094 L36.906,46.906 L32.094,46.906 z" fill="#FFFFFF"/>
    </g>
  </g>
</svg>
