<?xml version="1.0" encoding="UTF-8"?>
<!DOCTYPE svg PUBLIC "-//W3C//DTD SVG 1.1//EN" "http://www.w3.org/Graphics/SVG/1.1/DTD/svg11.dtd">
<svg version="1.1" xmlns="http://www.w3.org/2000/svg" xmlns:xlink="http://www.w3.org/1999/xlink" x="0" y="0" width="82" height="82" viewBox="0, 0, 82, 82">
  <g id="Background">
    <rect x="0" y="0" width="82" height="82" fill="#000000" fill-opacity="0"/>
  </g>
  <g id="Calendar">
    <path d="M41,82 C18.356,82 0,63.644 0,41 C0,18.356 18.356,0 41,0 C63.644,0 82,18.356 82,41 C82,63.644 63.644,82 41,82 z" fill="#058FFE"/>
    <g>
      <path d="M33.021,16.373 C41.376,14.14 37.742,15.11 43.922,13.464 C53.184,11.037 55.151,18.28 55.821,20.639 C56.218,22.077 56.603,23.519 56.99,24.959 L55.403,30.878 C54.539,27.695 53.705,24.504 52.783,21.336 C51.388,16.681 49.49,15.334 44.455,16.51 C39.627,17.811 25.383,21.604 23.554,22.117 C20.667,22.941 17.53,24.517 19.005,30.254 C20.469,35.729 24.633,51.269 27.075,60.378 C28.8,67.012 32.497,66.155 35.401,65.539 C37.952,64.877 53.121,60.812 56.355,59.912 C61.315,58.533 62.035,55.918 60.862,51.384 L60.48,49.944 L62.082,43.964 C62.674,46.178 63.266,48.391 63.857,50.605 C66.212,59.41 61.091,61.684 57.054,62.957 C54.867,63.549 44.405,66.351 36.386,68.498 C26.981,71.075 24.827,63.756 24.134,61.214 C23.441,58.674 17.642,37.005 16.067,31.091 C13.567,21.886 20.616,19.759 22.711,19.158 C26.142,18.211 29.583,17.295 33.021,16.373 z" fill="#FFFFFF"/>
      <path d="M64.355,16.745 C65.823,17.103 66.745,18.376 66.385,19.723 C66.025,21.071 58.206,49.934 58.206,49.934 L58.206,49.934 C56.947,51.652 55.689,53.371 54.437,55.096 C54.22,55.397 53.818,55.293 53.792,54.895 L52.917,48.501 C52.917,48.501 60.73,19.646 61.1,18.292 C61.469,16.938 62.887,16.389 64.355,16.745 z" fill="#FF6624" id="Pencil"/>
      <path d="M18.061,30.54 L54,20.915 L54.491,23.469 L18.721,33 z" fill="#FFFFFF"/>
      <path d="M23.918,17.37 L25.377,22.814 C25.536,23.409 25.135,24.034 24.479,24.209 L24.479,24.209 C23.825,24.384 23.165,24.043 23.006,23.449 L21.547,18.005 C21.388,17.411 21.789,16.786 22.444,16.61 L22.444,16.61 C23.099,16.435 23.759,16.775 23.918,17.37 z" fill="#FFFFFF"/>
      <path d="M44.146,11.95 L45.605,17.393 C45.764,17.988 45.363,18.613 44.707,18.789 L44.707,18.789 C44.053,18.964 43.394,18.624 43.233,18.029 L41.775,12.586 C41.616,11.99 42.017,11.365 42.672,11.19 L42.672,11.19 C43.327,11.014 43.987,11.354 44.146,11.95 z" fill="#FFFFFF"/>
      <path d="M42.834,47.653 L39.876,36.612 L39.818,36.628 L35.126,49.718 z M33.412,49.929 L39.191,33.939 L40.842,33.496 L44.515,47.203 L47.558,46.387 L47.969,47.923 L44.927,48.738 L46.278,53.78 L44.597,54.231 L43.246,49.189 L33.886,51.697 z" fill="#FFFFFF"/>
    </g>
  </g>
</svg>
