<?xml version="1.0" encoding="UTF-8"?>
<!DOCTYPE svg PUBLIC "-//W3C//DTD SVG 1.1//EN" "http://www.w3.org/Graphics/SVG/1.1/DTD/svg11.dtd">
<svg version="1.1" xmlns="http://www.w3.org/2000/svg" xmlns:xlink="http://www.w3.org/1999/xlink" x="0" y="0" width="64" height="64" viewBox="0, 0, 64, 64">
  <g id="Background">
    <rect x="0" y="0" width="64" height="64" fill="#000000" fill-opacity="0"/>
  </g>
  <g id="Calendar">
    <g>
      <path d="M22.952,6.108 C32.072,3.671 28.105,4.73 34.851,2.933 C44.962,0.283 47.109,8.19 47.841,10.765 C48.274,12.335 48.694,13.909 49.117,15.481 L47.384,21.942 C46.441,18.468 45.531,14.984 44.524,11.526 C43.001,6.445 40.93,4.974 35.433,6.258 C30.163,7.678 14.614,11.819 12.617,12.379 C9.466,13.278 6.041,14.998 7.652,21.261 C9.25,27.238 13.795,44.201 16.461,54.145 C18.344,61.387 22.38,60.451 25.55,59.779 C28.335,59.056 44.893,54.619 48.424,53.636 C53.838,52.131 54.624,49.276 53.343,44.327 L52.926,42.755 L54.675,36.227 C55.321,38.644 55.968,41.06 56.613,43.477 C59.184,53.088 53.593,55.571 49.187,56.96 C46.799,57.607 35.379,60.665 26.625,63.009 C16.358,65.822 14.007,57.832 13.251,55.058 C12.494,52.285 6.164,28.631 4.444,22.175 C1.715,12.126 9.41,9.805 11.697,9.148 C15.442,8.115 19.199,7.115 22.952,6.108 z" fill="#FFFFFF"/>
      <path d="M57.156,6.514 C58.759,6.905 59.765,8.295 59.372,9.765 C58.979,11.237 50.444,42.744 50.444,42.744 L50.444,42.744 C49.07,44.62 47.697,46.496 46.33,48.379 C46.093,48.708 45.654,48.594 45.626,48.16 L44.671,41.18 C44.671,41.18 53.199,9.681 53.603,8.203 C54.006,6.725 55.554,6.126 57.156,6.514 z" fill="#FFFFFF" id="Pencil"/>
      <path d="M6.621,21.573 L45.853,11.066 L46.389,13.854 L7.342,24.259 z" fill="#FFFFFF"/>
      <path d="M13.015,7.197 L14.607,13.139 C14.781,13.789 14.343,14.471 13.627,14.662 L13.627,14.662 C12.913,14.853 12.193,14.481 12.019,13.833 L10.427,7.89 C10.253,7.241 10.691,6.559 11.406,6.367 L11.406,6.367 C12.121,6.176 12.841,6.547 13.015,7.197 z" fill="#FFFFFF"/>
      <path d="M35.096,1.28 L36.689,7.222 C36.862,7.871 36.424,8.554 35.708,8.746 L35.708,8.746 C34.994,8.937 34.275,8.566 34.099,7.916 L32.508,1.974 C32.334,1.324 32.772,0.642 33.487,0.45 L33.487,0.45 C34.202,0.258 34.922,0.63 35.096,1.28 z" fill="#FFFFFF"/>
      <path d="M26.95,43.37 Q27.287,44.499 27.968,45.335 Q28.649,46.169 29.559,46.654 Q30.469,47.139 31.547,47.241 Q32.625,47.341 33.764,47.036 Q35.029,46.697 35.926,45.932 Q36.823,45.165 37.329,44.148 Q37.837,43.131 37.92,41.922 Q38.003,40.713 37.681,39.511 Q37.35,38.277 36.643,37.348 Q35.937,36.418 34.986,35.843 Q34.035,35.267 32.872,35.104 Q31.71,34.94 30.476,35.271 Q28.989,35.669 27.859,36.701 Q26.728,37.734 26.244,39.219 L24.537,39.677 L23.611,27.618 L34.682,24.651 L35.173,26.486 L25.494,29.079 L26.037,36.799 L26.117,36.846 Q26.677,35.644 27.814,34.763 Q28.951,33.882 30.248,33.535 Q31.956,33.078 33.485,33.279 Q35.013,33.478 36.25,34.233 Q37.486,34.986 38.384,36.254 Q39.283,37.522 39.733,39.199 Q40.165,40.812 39.933,42.349 Q39.7,43.886 38.923,45.162 Q38.147,46.438 36.892,47.385 Q35.636,48.331 34.055,48.755 Q32.504,49.17 31.065,49.047 Q29.625,48.925 28.427,48.314 Q27.23,47.702 26.32,46.59 Q25.412,45.476 24.957,43.903 z" fill="#FFFFFF"/>
    </g>
  </g>
</svg>
