<?xml version="1.0" encoding="UTF-8"?>
<!DOCTYPE svg PUBLIC "-//W3C//DTD SVG 1.1//EN" "http://www.w3.org/Graphics/SVG/1.1/DTD/svg11.dtd">
<svg version="1.1" xmlns="http://www.w3.org/2000/svg" xmlns:xlink="http://www.w3.org/1999/xlink" x="0" y="0" width="82" height="82" viewBox="0, 0, 82, 82">
  <g id="Background">
    <rect x="0" y="0" width="82" height="82" fill="#000000" fill-opacity="0"/>
  </g>
  <g id="Calendar">
    <path d="M41,82 C18.356,82 0,63.644 0,41 C0,18.356 18.356,0 41,0 C63.644,0 82,18.356 82,41 C82,63.644 63.644,82 41,82 z" fill="#058FFE"/>
    <g>
      <path d="M33.021,16.373 C41.376,14.14 37.742,15.11 43.922,13.464 C53.184,11.037 55.151,18.28 55.821,20.639 C56.218,22.077 56.603,23.519 56.99,24.959 L55.403,30.878 C54.539,27.695 53.705,24.504 52.783,21.336 C51.388,16.681 49.49,15.334 44.455,16.51 C39.627,17.811 25.383,21.604 23.554,22.117 C20.667,22.941 17.53,24.517 19.005,30.254 C20.469,35.729 24.633,51.269 27.075,60.378 C28.8,67.012 32.497,66.155 35.401,65.539 C37.952,64.877 53.121,60.812 56.355,59.912 C61.315,58.533 62.035,55.918 60.862,51.384 L60.48,49.944 L62.082,43.964 C62.674,46.178 63.266,48.391 63.857,50.605 C66.212,59.41 61.091,61.684 57.054,62.957 C54.867,63.549 44.405,66.351 36.386,68.498 C26.981,71.075 24.827,63.756 24.134,61.214 C23.441,58.674 17.642,37.005 16.067,31.091 C13.567,21.886 20.616,19.759 22.711,19.158 C26.142,18.211 29.583,17.295 33.021,16.373 z" fill="#FFFFFF"/>
      <path d="M64.355,16.745 C65.823,17.103 66.745,18.376 66.385,19.723 C66.025,21.071 58.206,49.934 58.206,49.934 L58.206,49.934 C56.947,51.652 55.689,53.371 54.437,55.096 C54.22,55.397 53.818,55.293 53.792,54.895 L52.917,48.501 C52.917,48.501 60.73,19.646 61.1,18.292 C61.469,16.938 62.887,16.389 64.355,16.745 z" fill="#FF6624" id="Pencil"/>
      <path d="M18.061,30.54 L54,20.915 L54.491,23.469 L18.721,33 z" fill="#FFFFFF"/>
      <path d="M23.918,17.37 L25.377,22.814 C25.536,23.409 25.135,24.034 24.479,24.209 L24.479,24.209 C23.825,24.384 23.165,24.043 23.006,23.449 L21.547,18.005 C21.388,17.411 21.789,16.786 22.444,16.61 L22.444,16.61 C23.099,16.435 23.759,16.775 23.918,17.37 z" fill="#FFFFFF"/>
      <path d="M44.146,11.95 L45.605,17.393 C45.764,17.988 45.363,18.613 44.707,18.789 L44.707,18.789 C44.053,18.964 43.394,18.624 43.233,18.029 L41.775,12.586 C41.616,11.99 42.017,11.365 42.672,11.19 L42.672,11.19 C43.327,11.014 43.987,11.354 44.146,11.95 z" fill="#FFFFFF"/>
      <path d="M36.684,50.507 Q36.992,51.542 37.616,52.307 Q38.24,53.071 39.074,53.516 Q39.907,53.96 40.895,54.053 Q41.882,54.145 42.926,53.866 Q44.085,53.555 44.906,52.854 Q45.728,52.152 46.192,51.22 Q46.657,50.288 46.733,49.181 Q46.809,48.073 46.514,46.972 Q46.211,45.842 45.563,44.991 Q44.916,44.139 44.045,43.612 Q43.174,43.084 42.109,42.935 Q41.044,42.785 39.914,43.088 Q38.552,43.453 37.516,44.398 Q36.48,45.344 36.037,46.705 L34.473,47.124 L33.625,36.077 L43.767,33.359 L44.217,35.04 L35.35,37.416 L35.847,44.488 L35.921,44.531 Q36.434,43.43 37.475,42.623 Q38.517,41.816 39.705,41.498 Q41.27,41.079 42.67,41.263 Q44.07,41.446 45.203,42.137 Q46.335,42.827 47.158,43.989 Q47.982,45.15 48.394,46.686 Q48.79,48.164 48.577,49.572 Q48.364,50.98 47.652,52.149 Q46.941,53.318 45.791,54.185 Q44.641,55.052 43.192,55.44 Q41.772,55.821 40.453,55.708 Q39.134,55.596 38.037,55.036 Q36.94,54.476 36.107,53.457 Q35.275,52.437 34.858,50.996 z" fill="#FFFFFF"/>
    </g>
  </g>
</svg>
