<?xml version="1.0" encoding="UTF-8"?>
<!DOCTYPE svg PUBLIC "-//W3C//DTD SVG 1.1//EN" "http://www.w3.org/Graphics/SVG/1.1/DTD/svg11.dtd">
<svg version="1.1" xmlns="http://www.w3.org/2000/svg" xmlns:xlink="http://www.w3.org/1999/xlink" x="0" y="0" width="64" height="64" viewBox="0, 0, 64, 64">
  <g id="Calendar">
    <path d="M23.289,6.108 C32.41,3.671 28.443,4.729 35.19,2.933 C45.3,0.284 47.447,8.19 48.178,10.765 C48.612,12.335 49.032,13.909 49.454,15.481 L47.722,21.942 C46.778,18.468 45.869,14.984 44.862,11.526 C43.34,6.445 41.267,4.975 35.771,6.258 C30.501,7.678 14.952,11.819 12.955,12.378 C9.804,13.278 6.38,14.998 7.989,21.262 C9.587,27.238 14.133,44.201 16.798,54.145 C18.681,61.387 22.718,60.451 25.887,59.779 C28.673,59.056 45.231,54.619 48.762,53.637 C54.176,52.131 54.962,49.277 53.681,44.327 L53.264,42.755 L55.013,36.227 C55.659,38.644 56.306,41.06 56.951,43.476 C59.522,53.088 53.931,55.571 49.525,56.96 C47.137,57.606 35.717,60.665 26.962,63.009 C16.696,65.822 14.345,57.832 13.588,55.058 C12.832,52.284 6.501,28.631 4.782,22.174 C2.053,12.126 9.748,9.805 12.035,9.149 C15.781,8.115 19.536,7.115 23.289,6.108 z" fill="#FFFFFF"/>
    <path d="M57.495,6.515 C59.097,6.905 60.103,8.294 59.71,9.766 C59.317,11.237 50.781,42.744 50.781,42.744 L50.781,42.744 C49.408,44.62 48.034,46.496 46.668,48.379 C46.431,48.708 45.992,48.594 45.963,48.16 L45.009,41.18 C45.009,41.18 53.537,9.681 53.941,8.203 C54.344,6.726 55.891,6.126 57.495,6.515 z" fill="#FFFFFF" id="Pencil"/>
    <path d="M6.959,21.573 L46.19,11.067 L46.726,13.854 L7.679,24.259 z" fill="#FFFFFF"/>
    <path d="M13.352,7.197 L14.945,13.139 C15.119,13.789 14.681,14.471 13.965,14.662 L13.965,14.662 C13.251,14.853 12.531,14.482 12.357,13.833 L10.765,7.89 C10.591,7.241 11.029,6.559 11.743,6.367 L11.743,6.367 C12.458,6.176 13.179,6.547 13.352,7.197 z" fill="#FFFFFF"/>
    <path d="M35.434,1.28 L37.026,7.222 C37.2,7.872 36.762,8.554 36.047,8.745 L36.047,8.745 C35.333,8.937 34.612,8.566 34.437,7.916 L32.846,1.974 C32.672,1.324 33.11,0.642 33.824,0.45 L33.824,0.45 C34.54,0.259 35.26,0.63 35.434,1.28 z" fill="#FFFFFF"/>
    <path d="M34.002,40.254 L30.773,28.202 L30.709,28.219 L25.588,42.509 z M23.717,42.739 L30.024,25.283 L31.827,24.8 L35.837,39.762 L39.158,38.872 L39.607,40.549 L36.286,41.439 L37.761,46.943 L35.926,47.435 L34.451,41.931 L24.234,44.668 z" fill="#FFFFFF"/>
  </g>
</svg>
