<?xml version="1.0" encoding="UTF-8"?>
<!DOCTYPE svg PUBLIC "-//W3C//DTD SVG 1.1//EN" "http://www.w3.org/Graphics/SVG/1.1/DTD/svg11.dtd">
<svg version="1.1" xmlns="http://www.w3.org/2000/svg" xmlns:xlink="http://www.w3.org/1999/xlink" x="0" y="0" width="82" height="82" viewBox="0, 0, 82, 82">
  <g id="Calendar">
    <path d="M41,82 C18.356,82 0,63.644 0,41 C0,18.356 18.356,0 41,0 C63.644,0 82,18.356 82,41 C82,63.644 63.644,82 41,82 z" fill="#058FFE"/>
    <path d="M32.523,16.137 C41.252,13.806 37.455,14.818 43.913,13.098 C53.59,10.562 55.645,18.129 56.344,20.596 C56.759,22.098 57.161,23.604 57.566,25.109 L55.909,31.293 C55.005,27.968 54.134,24.633 53.171,21.324 C51.713,16.46 49.73,15.053 44.469,16.28 C39.425,17.64 24.543,21.604 22.632,22.139 C19.615,23 16.338,24.646 17.878,30.641 C19.408,36.362 23.76,52.598 26.31,62.114 C28.113,69.046 31.975,68.151 35.009,67.507 C37.675,66.816 53.524,62.568 56.903,61.629 C62.086,60.188 62.837,57.455 61.611,52.718 L61.212,51.213 L62.887,44.966 C63.505,47.278 64.123,49.591 64.742,51.904 C67.202,61.104 61.851,63.48 57.633,64.809 C55.348,65.428 44.417,68.355 36.039,70.598 C26.212,73.291 23.962,65.644 23.238,62.989 C22.514,60.334 16.454,37.695 14.809,31.515 C12.197,21.898 19.563,19.676 21.751,19.048 C25.336,18.057 28.931,17.101 32.523,16.137 z" fill="#FFFFFF"/>
    <path d="M65.535,15.913 C67.074,16.287 68.04,17.622 67.662,19.034 C67.285,20.446 59.089,50.699 59.089,50.699 L59.089,50.699 C57.77,52.501 56.451,54.302 55.14,56.11 C54.911,56.426 54.49,56.318 54.463,55.901 L53.546,49.198 C53.546,49.198 61.735,18.953 62.122,17.534 C62.51,16.115 63.996,15.539 65.535,15.913 z" fill="#FF6624" id="Pencil"/>
    <path d="M33.722,37.532 L44.694,34.592 L45.522,37.683 L37.127,39.933 L37.481,45.62 L37.558,45.665 Q38.044,44.69 39.011,43.992 Q39.977,43.295 41.038,43.011 Q42.614,42.588 43.999,42.786 Q45.383,42.983 46.488,43.71 Q47.592,44.438 48.381,45.623 Q49.17,46.809 49.576,48.324 Q49.917,49.597 49.869,51.056 Q49.821,52.514 49.223,53.86 Q48.626,55.206 47.422,56.291 Q46.219,57.377 44.279,57.897 Q42.734,58.311 41.306,58.255 Q39.877,58.199 38.658,57.649 Q37.439,57.099 36.527,56.06 Q35.615,55.021 35.124,53.431 L38.579,52.505 Q39.194,54.192 40.472,54.84 Q41.75,55.489 43.447,55.034 Q44.538,54.742 45.199,54.175 Q45.859,53.608 46.158,52.846 Q46.457,52.083 46.427,51.182 Q46.397,50.281 46.137,49.311 Q45.901,48.432 45.443,47.694 Q44.986,46.955 44.338,46.479 Q43.691,46.003 42.821,45.846 Q41.95,45.69 40.92,45.966 Q39.829,46.258 38.984,46.923 Q38.139,47.588 38.015,48.823 L34.56,49.749 z" fill="#FFFFFF"/>
    <path d="M43.302,10.535 L43.302,10.535 C44.084,10.326 44.887,10.79 45.096,11.571 L46.457,16.65 C46.667,17.431 46.203,18.234 45.421,18.444 L45.421,18.444 C44.64,18.653 43.837,18.189 43.627,17.408 L42.267,12.329 C42.057,11.548 42.521,10.745 43.302,10.535 z" fill="#FFFFFF"/>
    <path d="M21.841,16.378 L21.841,16.378 C22.623,16.169 23.426,16.632 23.635,17.414 L24.996,22.493 C25.205,23.274 24.742,24.077 23.96,24.287 L23.96,24.287 C23.179,24.496 22.376,24.032 22.166,23.251 L20.805,18.172 C20.596,17.391 21.06,16.588 21.841,16.378 z" fill="#FFFFFF"/>
    <path d="M16.937,31.932 L54.366,21.903 C55.033,21.724 55.719,22.12 55.897,22.787 L55.897,22.787 C56.076,23.454 55.68,24.139 55.013,24.318 L17.584,34.347 C16.917,34.526 16.231,34.13 16.053,33.463 L16.053,33.463 C15.874,32.796 16.27,32.111 16.937,31.932 z" fill="#FFFFFF"/>
  </g>
</svg>
