<?xml version="1.0" encoding="UTF-8"?>
<!DOCTYPE svg PUBLIC "-//W3C//DTD SVG 1.1//EN" "http://www.w3.org/Graphics/SVG/1.1/DTD/svg11.dtd">
<svg version="1.1" xmlns="http://www.w3.org/2000/svg" xmlns:xlink="http://www.w3.org/1999/xlink" x="0" y="0" width="512" height="512" viewBox="0, 0, 512, 512">
  <g id="calendar">
    <g>
      <path d="M469.333,64 L416,64 L416,32 C416,14.354 401.646,-0 384,-0 C366.354,-0 352,14.354 352,32 L352,64 L160,64 L160,32 C160,14.354 145.646,-0 128,-0 C110.354,-0 96,14.354 96,32 L96,64 L42.667,64 C19.103,64 -0,83.103 -0,106.667 L-0,469.333 C-0,492.897 19.103,512 42.667,512 L469.333,512 C492.897,512 512,492.897 512,469.333 L512,106.667 C512,83.103 492.897,64 469.333,64 z M373.333,32 C373.333,26.114 378.125,21.333 384,21.333 C389.875,21.333 394.667,26.114 394.667,32 L394.667,117.333 C394.667,123.219 389.875,128 384,128 C378.125,128 373.333,123.219 373.333,117.333 L373.333,32 z M117.333,32 C117.333,26.114 122.125,21.333 128,21.333 C133.875,21.333 138.667,26.114 138.667,32 L138.667,117.333 C138.667,123.219 133.875,128 128,128 C122.125,128 117.333,123.219 117.333,117.333 L117.333,32 z M483.333,458 C483.333,469.763 470.43,481.333 458.667,481.333 L55.333,483.333 C43.57,483.333 28.667,468.43 28.667,456.667 L30.667,213.333 L483.333,213.333 L483.333,458 z M483.333,184 L31.333,182.667 L32,118.667 C32,106.903 44.903,93.333 56.667,93.333 L95.333,92.667 L96,117.333 C96,134.979 110.354,149.333 128,149.333 C145.646,149.333 160,134.979 160,117.333 L160,93.333 L352,92.667 L352,117.333 C352,134.979 366.354,149.333 384,149.333 C401.646,149.333 416,134.979 416,117.333 L416.667,92 L460.667,92 C472.43,92 484,101.57 484,113.333 L483.333,184 z" fill="#FFFFFF"/>
      <path d="M226.667,269.333 L285.333,269.333 L285.333,328 L226.667,328 z" fill="#FFFFFF"/>
      <path d="M226.667,354.667 L285.333,354.667 L285.333,413.333 L226.667,413.333 z" fill="#FFFFFF"/>
      <path d="M312,354.667 L370.667,354.667 L370.667,413.333 L312,413.333 z" fill="#FFFFFF"/>
      <path d="M141.333,269.333 L200,269.333 L200,328 L141.333,328 z" fill="#FFFFFF"/>
    </g>
  </g>
</svg>
