<?xml version="1.0" encoding="UTF-8"?>
<!DOCTYPE svg PUBLIC "-//W3C//DTD SVG 1.1//EN" "http://www.w3.org/Graphics/SVG/1.1/DTD/svg11.dtd">
<svg version="1.1" xmlns="http://www.w3.org/2000/svg" xmlns:xlink="http://www.w3.org/1999/xlink" x="0" y="0" width="64" height="64" viewBox="0, 0, 64, 64">
  <g id="Calendar">
    <path d="M23.29,6.108 C32.41,3.672 28.443,4.729 35.19,2.933 C45.3,0.283 47.447,8.189 48.178,10.766 C48.612,12.336 49.032,13.909 49.455,15.482 L47.723,21.943 C46.779,18.468 45.869,14.984 44.863,11.527 C43.34,6.445 41.268,4.975 35.771,6.257 C30.501,7.678 14.952,11.819 12.955,12.379 C9.804,13.278 6.38,14.998 7.989,21.261 C9.588,27.239 14.134,44.202 16.799,54.144 C18.682,61.387 22.718,60.451 25.887,59.779 C28.673,59.056 45.231,54.619 48.762,53.637 C54.177,52.131 54.962,49.276 53.681,44.327 L53.265,42.755 L55.014,36.228 C55.66,38.644 56.306,41.06 56.952,43.476 C59.522,53.089 53.931,55.572 49.525,56.96 C47.137,57.607 35.717,60.665 26.963,63.009 C16.697,65.822 14.346,57.832 13.589,55.058 C12.832,52.284 6.501,28.631 4.782,22.175 C2.053,12.126 9.749,9.805 12.035,9.149 C15.781,8.114 19.537,7.115 23.29,6.108 z" fill="#FFFFFF"/>
    <path d="M57.495,6.515 C59.097,6.905 60.104,8.295 59.71,9.766 C59.317,11.237 50.782,42.744 50.782,42.744 L50.782,42.744 C49.408,44.62 48.034,46.496 46.669,48.379 C46.431,48.708 45.992,48.595 45.964,48.16 L45.009,41.18 C45.009,41.18 53.538,9.681 53.941,8.203 C54.344,6.725 55.892,6.126 57.495,6.515 z" fill="#FFFFFF" id="Pencil"/>
    <path d="M6.96,21.574 L46.191,11.066 L46.726,13.855 L7.679,24.258 z" fill="#FFFFFF"/>
    <path d="M13.353,7.197 L14.945,13.139 C15.119,13.789 14.681,14.471 13.966,14.662 L13.966,14.662 C13.252,14.854 12.531,14.482 12.357,13.832 L10.765,7.89 C10.591,7.24 11.029,6.559 11.744,6.367 L11.744,6.367 C12.458,6.176 13.179,6.547 13.353,7.197 z" fill="#FFFFFF"/>
    <path d="M35.434,1.28 L37.026,7.222 C37.2,7.872 36.762,8.554 36.048,8.745 L36.048,8.745 C35.333,8.937 34.612,8.565 34.438,7.916 L32.846,1.973 C32.672,1.324 33.11,0.642 33.825,0.45 L33.825,0.45 C34.54,0.259 35.26,0.63 35.434,1.28 z" fill="#FFFFFF"/>
    <path d="M27.096,42.518 L25.08,43.064 Q25.445,44.923 26.354,46.188 Q27.263,47.453 28.563,48.132 Q29.863,48.811 31.458,48.928 Q33.053,49.046 34.781,48.579 Q36.317,48.163 37.608,47.35 Q38.9,46.537 39.722,45.387 Q40.544,44.237 40.826,42.804 Q41.108,41.371 40.658,39.707 Q40.06,37.498 38.457,36.335 Q36.854,35.172 34.551,35.417 L34.534,35.353 Q36.236,34.412 36.849,32.803 Q37.461,31.195 36.967,29.371 Q36.56,27.867 35.678,26.955 Q34.796,26.043 33.634,25.619 Q32.471,25.195 31.132,25.197 Q29.793,25.198 28.481,25.554 Q26.849,25.995 25.688,26.91 Q24.528,27.826 23.88,29.049 Q23.232,30.271 23.1,31.75 Q22.967,33.228 23.4,34.828 L25.417,34.283 Q25.047,33.043 25.085,31.917 Q25.124,30.79 25.576,29.86 Q26.029,28.931 26.876,28.255 Q27.724,27.579 28.972,27.241 Q29.996,26.964 30.941,26.966 Q31.886,26.968 32.701,27.314 Q33.516,27.66 34.112,28.34 Q34.709,29.02 35.012,30.14 Q35.298,31.196 35.089,32.077 Q34.881,32.958 34.359,33.631 Q33.838,34.305 33.087,34.766 Q32.335,35.227 31.567,35.435 L29.871,35.894 L30.33,37.59 L32.026,37.131 Q33.146,36.828 34.201,36.852 Q35.255,36.875 36.151,37.268 Q37.047,37.661 37.701,38.429 Q38.356,39.196 38.685,40.412 Q39.005,41.596 38.776,42.654 Q38.548,43.713 37.921,44.569 Q37.294,45.426 36.356,46.023 Q35.419,46.62 34.299,46.923 Q32.955,47.287 31.765,47.145 Q30.576,47.003 29.648,46.43 Q28.721,45.857 28.058,44.868 Q27.395,43.88 27.096,42.518 z" fill="#FFFFFF"/>
  </g>
</svg>
