<?xml version="1.0" encoding="UTF-8"?>
<!DOCTYPE svg PUBLIC "-//W3C//DTD SVG 1.1//EN" "http://www.w3.org/Graphics/SVG/1.1/DTD/svg11.dtd">
<svg version="1.1" xmlns="http://www.w3.org/2000/svg" xmlns:xlink="http://www.w3.org/1999/xlink" x="0" y="0" width="64" height="64" viewBox="0, 0, 64, 64">
  <g id="Calendar">
    <path d="M23.29,6.108 C32.41,3.672 28.443,4.729 35.19,2.933 C45.3,0.283 47.447,8.189 48.178,10.766 C48.612,12.336 49.032,13.909 49.455,15.482 L47.723,21.943 C46.779,18.468 45.869,14.984 44.863,11.527 C43.34,6.445 41.268,4.975 35.771,6.257 C30.501,7.678 14.952,11.819 12.955,12.379 C9.804,13.278 6.38,14.998 7.989,21.261 C9.588,27.239 14.134,44.202 16.799,54.144 C18.682,61.387 22.718,60.451 25.887,59.779 C28.673,59.056 45.231,54.619 48.762,53.637 C54.177,52.131 54.962,49.276 53.681,44.327 L53.265,42.755 L55.014,36.228 C55.66,38.644 56.306,41.06 56.952,43.476 C59.522,53.089 53.931,55.572 49.525,56.96 C47.137,57.607 35.717,60.665 26.963,63.009 C16.697,65.822 14.346,57.832 13.589,55.058 C12.832,52.284 6.501,28.631 4.782,22.175 C2.053,12.126 9.749,9.805 12.035,9.149 C15.781,8.114 19.537,7.115 23.29,6.108 z" fill="#FFFFFF"/>
    <path d="M57.495,6.515 C59.097,6.905 60.104,8.295 59.71,9.766 C59.317,11.237 50.782,42.744 50.782,42.744 L50.782,42.744 C49.408,44.62 48.034,46.496 46.669,48.379 C46.431,48.708 45.992,48.595 45.964,48.16 L45.009,41.18 C45.009,41.18 53.538,9.681 53.941,8.203 C54.344,6.725 55.892,6.126 57.495,6.515 z" fill="#FFFFFF" id="Pencil"/>
    <path d="M6.96,21.574 L46.191,11.066 L46.726,13.855 L7.679,24.258 z" fill="#FFFFFF"/>
    <path d="M13.353,7.197 L14.945,13.139 C15.119,13.789 14.681,14.471 13.966,14.662 L13.966,14.662 C13.252,14.854 12.531,14.482 12.357,13.832 L10.765,7.89 C10.591,7.24 11.029,6.559 11.744,6.367 L11.744,6.367 C12.458,6.176 13.179,6.547 13.353,7.197 z" fill="#FFFFFF"/>
    <path d="M35.434,1.28 L37.026,7.222 C37.2,7.872 36.762,8.554 36.048,8.745 L36.048,8.745 C35.333,8.937 34.612,8.565 34.438,7.916 L32.846,1.973 C32.672,1.324 33.11,0.642 33.825,0.45 L33.825,0.45 C34.54,0.259 35.26,0.63 35.434,1.28 z" fill="#FFFFFF"/>
    <path d="M31.002,35.184 Q30.118,35.455 29.199,35.463 Q28.279,35.47 27.473,35.14 Q26.668,34.809 26.04,34.124 Q25.413,33.439 25.114,32.324 Q24.858,31.368 25.06,30.529 Q25.262,29.69 25.803,29.033 Q26.344,28.376 27.135,27.89 Q27.927,27.405 28.851,27.158 Q29.87,26.884 30.798,26.909 Q31.727,26.933 32.492,27.24 Q33.257,27.547 33.82,28.182 Q34.382,28.816 34.638,29.772 Q34.928,30.855 34.744,31.758 Q34.559,32.661 34.042,33.346 Q33.526,34.03 32.73,34.499 Q31.934,34.969 31.002,35.184 z M36.645,29.234 Q36.261,27.801 35.39,26.908 Q34.519,26.014 33.364,25.59 Q32.209,25.165 30.909,25.155 Q29.609,25.145 28.367,25.478 Q27.124,25.811 26.004,26.47 Q24.883,27.128 24.111,28.069 Q23.339,29.01 23.031,30.219 Q22.723,31.428 23.108,32.862 Q23.603,34.709 24.879,35.715 Q26.156,36.722 28.053,36.794 L28.07,36.858 Q26.07,37.803 25.31,39.68 Q24.55,41.556 25.075,43.771 Q25.527,45.459 26.47,46.555 Q27.412,47.651 28.685,48.198 Q29.958,48.744 31.47,48.783 Q32.983,48.822 34.544,48.403 Q36.136,47.977 37.411,47.191 Q38.686,46.406 39.515,45.296 Q40.344,44.186 40.612,42.766 Q40.88,41.346 40.428,39.657 Q39.813,37.364 38.238,36.199 Q36.662,35.033 34.345,35.176 L34.328,35.113 Q35.912,34.142 36.522,32.596 Q37.131,31.05 36.645,29.234 z M34.1,46.747 Q32.921,47.063 31.801,47.022 Q30.68,46.981 29.749,46.564 Q28.818,46.148 28.116,45.312 Q27.414,44.476 27.082,43.233 Q26.757,42.023 26.972,40.976 Q27.186,39.928 27.784,39.102 Q28.382,38.276 29.34,37.712 Q30.299,37.148 31.454,36.873 Q32.56,36.542 33.677,36.567 Q34.793,36.593 35.74,37.005 Q36.687,37.417 37.392,38.201 Q38.097,38.985 38.421,40.195 Q38.763,41.469 38.573,42.544 Q38.383,43.619 37.785,44.445 Q37.187,45.271 36.233,45.851 Q35.278,46.431 34.1,46.747 z" fill="#FFFFFF"/>
  </g>
</svg>
